<svg width="138" height="63" viewBox="0 0 138 63" fill="none" xmlns="http://www.w3.org/2000/svg">
<g id="Group 86">
<circle id="Ellipse 3" cx="117.257" cy="20.7423" r="20.7423" fill="#A4E7ED"/>
<circle id="Ellipse 4" cx="26.6686" cy="20.7423" r="20.7423" fill="#73C3F4"/>
<circle id="Ellipse 6" cx="21.8712" cy="48.6808" r="13.4049" fill="#DD71C6"/>
<circle id="Ellipse 5" cx="8.32515" cy="38.5214" r="8.32515" fill="#FFD900"/>
<g id="Layer 1">
<path id="Vector" d="M23.8269 38.5861C23.9307 38.2877 24.0015 37.9789 24.0381 37.6651C24.0381 37.6651 25.0678 38.6622 25.5742 40.5601C26.0805 42.458 26.6614 43.115 27.5482 43.9475C28.435 44.78 31.1204 46.4977 33.8943 49.6227C36.6107 52.6885 40.1612 56.8556 40.2901 57.0063C40.2031 56.8277 37.3609 51.0453 35.8016 48.9595C34.2189 46.841 33.082 45.0595 31.5693 44.3467C30.0565 43.6338 28.9196 41.8523 28.9289 39.052C28.9383 36.2517 27.4581 35.0729 26.5557 34.5479C25.6534 34.023 22.85 31.5224 24.3254 27.7141C25.8009 23.9058 33.2793 21.2655 35.185 20.7576C37.0907 20.2498 41.3633 18.7991 41.3633 18.7991C41.3633 18.7991 36.9944 19.001 34.2935 19.9329C31.636 20.8446 28.6835 21.5855 28.5919 21.6088C28.6385 21.5591 29.5098 20.5713 29.2737 19.5897C29.1806 19.1366 28.9224 18.7344 28.5493 18.4611C28.1761 18.1878 27.7147 18.0631 27.2547 18.1111C26.5433 18.2105 26.3414 18.3379 26.3103 18.3612C26.3989 18.2649 27.8635 16.7816 28.7721 16.1868C29.6807 15.5919 30.7275 14.5762 31.0754 13.9751C31.0754 13.9751 27.5342 15.9383 26.082 16.7832C24.6299 17.6281 22.996 18.9312 21.3046 21.163C19.6132 23.3949 19.3166 25.709 19.6536 27.9083C19.9906 30.1075 20.9878 31.5675 21.4055 32.372C21.8233 33.1765 22.2039 34.5976 21.6929 35.3447C21.1819 36.0917 19.3212 38.4696 19.2001 40.484C19.0789 42.4984 19.9223 43.9522 20.9334 45.2568C21.9445 46.5614 24.0397 50.4256 25.5229 54.2494C27.0062 58.0733 27.8945 58.7535 27.8945 58.7535C27.8945 58.7535 26.6691 50.7425 25.7202 48.5028C24.7712 46.2632 23.5209 43.7006 23.2351 43.3775C22.9494 43.0544 22.0703 42.062 22.5999 41.0043C23.1295 39.9466 23.6343 39.1918 23.8269 38.5861ZM23.1885 23.4554C23.1885 23.4554 23.1357 21.747 24.1204 20.8664C24.1204 20.8664 24.3456 22.2797 25.731 22.5204C25.7341 22.5204 24.1282 23.3498 23.1885 23.4554Z" fill="#4D85B0"/>
<path id="Vector_2" d="M39.3147 33.3554C39.1175 31.5755 38.9109 29.8438 38.6935 28.2099C38.476 26.576 38.2182 25.0275 37.9169 23.6375L37.8765 23.4526H35.9351L35.8652 23.552C35.3838 24.237 34.8945 24.9499 34.4115 25.6752C33.9285 26.4005 33.4408 27.1631 32.95 27.9552C32.4592 28.7473 31.9513 29.5875 31.4341 30.4619C30.9169 31.3364 30.3702 32.276 29.8018 33.2576L29.5952 33.6101H32.0321L32.0973 33.4859C32.3132 33.0821 32.5275 32.6876 32.7372 32.3117L33.2917 31.3162H36.895C36.9245 31.6128 36.954 31.9157 36.9819 32.2279C37.0176 32.613 37.0472 33.0044 37.0689 33.3896L37.0813 33.6101H39.338L39.3147 33.3554ZM34.3292 29.454C34.7376 28.7488 35.1306 28.0965 35.5018 27.5125C35.801 27.0383 36.0827 26.5962 36.3467 26.1862C36.415 26.6925 36.4787 27.191 36.5346 27.6772C36.6061 28.2767 36.6651 28.8731 36.7117 29.454H34.3292Z" fill="#FFD900"/>
<path id="Vector_3" d="M51.7225 27.2965C52.0147 26.8425 52.1704 26.3143 52.1714 25.7745C52.1894 25.3321 52.0629 24.896 51.8111 24.5319C51.5791 24.2171 51.275 23.9625 50.9242 23.7895C50.5556 23.6094 50.16 23.4909 49.7532 23.4385C49.3447 23.3805 48.9326 23.3515 48.52 23.3516C48.0447 23.3516 47.5648 23.3702 47.0942 23.4075C46.6367 23.4436 46.1821 23.5105 45.7336 23.6078L45.5923 23.6404L43.2471 33.3972L43.4769 33.4485C43.9511 33.553 44.4323 33.6225 44.9167 33.6566C45.4479 33.7001 45.9604 33.7218 46.4388 33.7218C48.0913 33.7218 49.3788 33.4112 50.2672 32.79C51.1836 32.1501 51.648 31.2368 51.648 30.0673C51.6558 29.6238 51.5237 29.1891 51.2706 28.8248C51.1036 28.5915 50.8925 28.3931 50.6493 28.2408C51.0828 28.0244 51.4527 27.699 51.7225 27.2965ZM48.756 27.3354C48.4959 27.3887 48.231 27.4153 47.9655 27.4146H46.914L47.4266 25.2992C47.526 25.2899 47.6409 25.279 47.7714 25.2712C47.9795 25.2573 48.1938 25.2542 48.4004 25.251C48.808 25.2325 49.2145 25.3058 49.5901 25.4654C49.7454 25.5399 49.9426 25.6906 49.9426 26.1379C49.9501 26.3339 49.8999 26.5278 49.7982 26.6955C49.6916 26.8568 49.5512 26.993 49.3866 27.0946C49.1925 27.2119 48.9789 27.2934 48.756 27.3354ZM49.163 31.0194C49.0075 31.2279 48.804 31.3957 48.5697 31.5086C48.3034 31.6334 48.0195 31.7162 47.7279 31.754C47.4191 31.7969 47.1077 31.8192 46.796 31.8208C46.5413 31.8208 46.3052 31.8208 46.0971 31.8006L45.8532 31.782L46.4745 29.2379H47.8847C48.4485 29.2379 48.8492 29.3342 49.076 29.5253C49.1794 29.6092 49.2621 29.7156 49.3179 29.8366C49.3736 29.9575 49.4008 30.0895 49.3975 30.2226C49.4085 30.5067 49.3262 30.7866 49.163 31.0194Z" fill="#FFD900"/>
<path id="Vector_4" d="M58.7566 26.2635C58.3232 25.8597 57.7144 25.6547 56.9487 25.6547C56.2924 25.6457 55.6434 25.7931 55.0554 26.0849C54.5036 26.364 54.0143 26.7524 53.6172 27.2265C53.2178 27.7086 52.9098 28.2597 52.7087 28.8526C52.5017 29.4607 52.3968 30.0989 52.398 30.7412C52.3954 31.1381 52.4562 31.533 52.5782 31.9107C52.6976 32.289 52.9014 32.6351 53.1743 32.923C53.4471 33.2109 53.7818 33.433 54.1531 33.5726C54.6098 33.7426 55.0947 33.8243 55.582 33.8133C56.0705 33.8209 56.5582 33.7687 57.0341 33.658C57.374 33.5812 57.7062 33.4736 58.0266 33.3365L58.1819 33.2666L57.994 31.4199L57.7051 31.538C57.1313 31.7805 56.5155 31.9076 55.8926 31.9123C54.6858 31.9123 54.5227 31.3438 54.5165 30.9012C55.0477 30.8779 55.5788 30.8344 56.0976 30.7676C56.6596 30.7016 57.209 30.5541 57.7284 30.3296C58.199 30.1245 58.6127 29.8078 58.9336 29.4071C59.2706 28.9532 59.4407 28.3969 59.4151 27.8322C59.4239 27.5388 59.3697 27.247 59.2561 26.9764C59.1425 26.7058 58.9721 26.4627 58.7566 26.2635ZM56.6956 27.506C56.958 27.506 57.1413 27.5573 57.2298 27.652C57.3195 27.7458 57.3701 27.8702 57.3712 27.9999C57.3712 28.3758 57.1724 28.6414 56.7499 28.8371C56.3275 29.0328 55.6348 29.1586 54.7106 29.2083C54.7661 29.0341 54.8378 28.8657 54.925 28.705C55.0494 28.4714 55.2063 28.2565 55.3909 28.0667C55.5644 27.8927 55.7687 27.7526 55.9935 27.6536C56.2146 27.5556 56.4538 27.5053 56.6956 27.506Z" fill="#FFD900"/>
<path id="Vector_5" d="M61.9599 30.9075C61.9439 31.0196 61.9356 31.1327 61.935 31.246C61.9345 31.34 61.9444 31.4338 61.9645 31.5256C61.9771 31.5909 62.0072 31.6515 62.0515 31.7011C62.1111 31.7619 62.1847 31.8072 62.2658 31.8331C62.4164 31.8804 62.574 31.9015 62.7318 31.8953C62.9558 31.896 63.1789 31.8662 63.395 31.8067C63.5951 31.7521 63.7917 31.6851 63.9836 31.6064L64.2756 31.4837L64.4464 33.3241L64.2911 33.3909C64.0171 33.5054 63.7346 33.5983 63.4462 33.6689C63.0516 33.7633 62.6467 33.8082 62.241 33.8025C61.379 33.8025 60.7437 33.6021 60.3555 33.2077C59.9672 32.8132 59.7715 32.2758 59.7715 31.6095C59.772 31.3673 59.7891 31.1255 59.8227 30.8857C59.861 30.6218 59.9128 30.36 59.9781 30.1014L61.4427 23.9354L63.7056 23.5767L63.1573 25.8349H65.5523L65.1034 27.6987H62.7069L62.0546 30.4198C62.0064 30.6124 61.9769 30.777 61.9599 30.9075Z" fill="#FFD900"/>
<path id="Vector_6" d="M67.5681 30.9089C67.5528 31.0217 67.5445 31.1353 67.5432 31.2491C67.5436 31.3425 67.5535 31.4356 67.5727 31.5271C67.586 31.5921 67.616 31.6526 67.6597 31.7026C67.7203 31.763 67.7942 31.8082 67.8756 31.8346C68.0262 31.8819 68.1838 31.9029 68.3415 31.8967C68.5661 31.8976 68.7898 31.8678 69.0063 31.8082C69.2059 31.7535 69.402 31.6866 69.5934 31.6078L69.8869 31.4851L70.0578 33.3256L69.9024 33.3939C69.6276 33.5071 69.3446 33.5995 69.056 33.6704C68.6619 33.7648 68.2575 33.8097 67.8523 33.804C66.9888 33.804 66.3551 33.6036 65.9668 33.2091C65.5785 32.8146 65.3813 32.2772 65.3828 31.6109C65.3833 31.3688 65.4004 31.127 65.4341 30.8872C65.4723 30.6232 65.5242 30.3614 65.5894 30.1028L67.054 23.9369L69.3154 23.5781L68.7671 25.8348H71.1605L70.7132 27.6986H68.3151L67.6582 30.415C67.6162 30.6138 67.5852 30.7785 67.5681 30.9089Z" fill="#FFD900"/>
<path id="Vector_7" d="M77.2904 26.268C77.0676 26.0619 76.8026 25.9066 76.5139 25.8129C76.1812 25.7061 75.8335 25.6537 75.4841 25.6576C74.8268 25.6486 74.1768 25.796 73.5878 26.0878C73.0355 26.3676 72.5461 26.7571 72.1496 27.2325C71.7495 27.7145 71.4411 28.2656 71.2394 28.8586C71.0319 29.466 70.9269 30.1038 70.9288 30.7457C70.926 31.1432 70.9869 31.5385 71.109 31.9168C71.229 32.2947 71.433 32.6405 71.7058 32.9283C71.9785 33.2161 72.3129 33.4385 72.6838 33.5786C73.1406 33.7486 73.6255 33.8303 74.1127 33.8193C74.6013 33.8262 75.0889 33.774 75.5649 33.664C75.9045 33.586 76.2366 33.4785 76.5574 33.3425L76.7127 33.2726L76.5185 31.426L76.2296 31.5456C75.6561 31.7868 75.0409 31.9134 74.4187 31.9183C73.2119 31.9183 73.0488 31.3499 73.0426 30.9072C73.5753 30.8855 74.105 30.8404 74.6222 30.7736C75.184 30.7087 75.7334 30.5622 76.2529 30.3388C76.7265 30.1348 77.1433 29.8187 77.4675 29.4178C77.8047 28.965 77.9758 28.41 77.9521 27.846C77.9615 27.5509 77.9074 27.2572 77.7932 26.9849C77.679 26.7126 77.5075 26.4681 77.2904 26.268ZM75.2294 27.5105C75.4904 27.5105 75.6752 27.5618 75.7622 27.6658C75.8532 27.7588 75.9045 27.8836 75.905 28.0137C75.905 28.388 75.7062 28.6552 75.2838 28.8509C74.8613 29.0466 74.1686 29.1646 73.2368 29.2127C73.2918 29.039 73.3636 28.871 73.4511 28.7111C73.575 28.4766 73.7319 28.2611 73.917 28.0712C74.0903 27.8977 74.2941 27.7577 74.5181 27.6581C74.742 27.5588 74.9845 27.5085 75.2294 27.5105Z" fill="#FFD900"/>
<path id="Vector_8" d="M84.3329 26.035L83.6961 27.8708L83.4771 27.7947C83.2925 27.7305 83.1029 27.6817 82.9103 27.6487C82.6724 27.6119 82.4318 27.5948 82.1911 27.5974C82.0327 27.5983 81.8745 27.6091 81.7174 27.63C81.6219 27.6417 81.527 27.6583 81.4332 27.6797L80.0152 33.6251H77.8408L79.6207 26.2322L79.7434 26.1903C80.1694 26.0503 80.6029 25.9341 81.0418 25.8424C81.5444 25.737 82.0566 25.685 82.5701 25.6871C82.6928 25.6871 82.8264 25.6948 82.9739 25.7088C83.1215 25.7228 83.2566 25.7399 83.3948 25.7585C83.5331 25.7772 83.6744 25.8051 83.7955 25.8331C83.9121 25.8598 84.026 25.8972 84.1357 25.9449L84.3329 26.035Z" fill="#FFD900"/>
<path id="Vector_9" d="M50.7168 36.3726L50.5848 36.6941C49.8501 38.4896 49.0969 40.2104 48.3451 41.8195C47.5934 43.4285 46.792 44.9708 45.9471 46.4245L45.8803 46.541H43.8317L43.8022 46.3422C43.7277 45.839 43.6562 45.3436 43.5863 44.859C43.5164 44.3744 43.4512 43.8727 43.3922 43.3773C43.3332 42.8818 43.2757 42.3662 43.2245 41.8475C43.198 41.5757 43.1701 41.2914 43.1452 40.9994C42.6871 41.8366 42.232 42.6535 41.7878 43.4363C41.2194 44.4396 40.6074 45.4554 39.9706 46.4354L39.9023 46.541H37.8475L37.8289 46.3298C37.7559 45.5206 37.7031 44.7021 37.6735 43.8976C37.644 43.0931 37.627 42.2652 37.627 41.4265C37.627 39.8983 37.6798 38.2752 37.7823 36.5994L37.7962 36.3804H40.0265L40.011 36.6289C39.9551 37.5251 39.907 38.4212 39.8712 39.2894C39.8355 40.1576 39.8153 41.06 39.8153 41.9577V42.9719C39.8153 43.0496 39.8153 43.1272 39.8153 43.2064C39.9706 42.9362 40.1415 42.6597 40.3046 42.3786C40.6152 41.8552 40.9165 41.3194 41.2147 40.782C41.5129 40.2446 41.8049 39.6948 42.0891 39.1636C42.3733 38.6325 42.642 38.1059 42.8936 37.6105L42.9589 37.4831H44.8615L44.8723 37.7037C44.9003 38.2069 44.936 38.7381 44.9764 39.2786C45.0168 39.8191 45.068 40.3751 45.1224 40.9171C45.1767 41.4592 45.2342 41.995 45.2901 42.5169C45.315 42.756 45.3414 42.9828 45.3662 43.2142C45.5215 42.9129 45.6769 42.593 45.8322 42.2683C46.1117 41.6766 46.3944 41.06 46.6709 40.4341C46.9473 39.8082 47.2284 39.145 47.4956 38.488C47.7627 37.831 48.0252 37.1725 48.2721 36.5264L48.3296 36.3711L50.7168 36.3726Z" fill="#FFD900"/>
<path id="Vector_10" d="M55.8695 39.1775C55.4347 38.7737 54.8258 38.5687 54.0601 38.5687C53.4027 38.5602 52.7527 38.7082 52.1638 39.0005C51.612 39.2797 51.1231 39.6687 50.7271 40.1436C50.327 40.6253 50.019 41.1765 49.8185 41.7697C49.611 42.3771 49.506 43.0149 49.5079 43.6568C49.5051 44.0542 49.566 44.4496 49.6881 44.8278C49.8076 45.2057 50.011 45.5517 50.2832 45.8397C50.5554 46.1278 50.8893 46.3505 51.2598 46.4912C51.7169 46.6599 52.2016 46.7411 52.6887 46.7304C53.1783 46.7372 53.6669 46.6851 54.144 46.5751C54.4839 46.4974 54.816 46.3893 55.1365 46.2521L55.2918 46.1837L55.1023 44.3355L54.8134 44.4551C54.2397 44.6976 53.6238 44.8248 53.0009 44.8294C51.7941 44.8294 51.631 44.2609 51.6248 43.8183C52.156 43.795 52.6872 43.75 53.2044 43.6847C53.7667 43.6178 54.3164 43.4703 54.8367 43.2467C55.3101 43.0426 55.7265 42.7259 56.0497 42.3242C56.3877 41.869 56.5578 41.311 56.5312 40.7446C56.5393 40.4513 56.4844 40.1597 56.3703 39.8893C56.2562 39.619 56.0854 39.3763 55.8695 39.1775ZM53.8085 40.42C54.0695 40.42 54.2543 40.4713 54.3428 40.5754C54.4329 40.6688 54.4835 40.7934 54.4841 40.9233C54.4841 41.2976 54.2853 41.5647 53.8629 41.7604C53.4404 41.9561 52.7477 42.0819 51.8252 42.1316C51.8801 41.9575 51.9513 41.789 52.038 41.6284C52.162 41.3945 52.3189 41.1795 52.5039 40.99C52.6777 40.8161 52.882 40.6755 53.1065 40.5754C53.327 40.4747 53.5662 40.4218 53.8085 40.42Z" fill="#FFD900"/>
<path id="Vector_11" d="M61.0775 36.7067C61.0826 36.8982 61.046 37.0886 60.9701 37.2646C60.8942 37.4406 60.7808 37.5978 60.6379 37.7255C60.3721 37.9752 60.021 38.1141 59.6563 38.1138C59.3647 38.1193 59.0805 38.022 58.8534 37.8389C58.7295 37.7356 58.6317 37.6045 58.5677 37.4564C58.5038 37.3083 58.4755 37.1473 58.4853 36.9862C58.4802 36.7949 58.5159 36.6046 58.5901 36.4281C58.6643 36.2517 58.7752 36.093 58.9155 35.9627C59.1762 35.7058 59.5279 35.5623 59.894 35.5636C60.189 35.5599 60.4759 35.66 60.7047 35.8462C60.8295 35.9508 60.9281 36.083 60.9928 36.2324C61.0575 36.3818 61.0865 36.5442 61.0775 36.7067Z" fill="#FFD900"/>
<path id="Vector_12" d="M60.4561 38.7524L58.5814 46.5336H56.4102L58.2848 38.7524H60.4561Z" fill="#FFD900"/>
<path id="Vector_13" d="M68.1597 39.1155C67.7948 38.9214 67.4025 38.7837 66.9964 38.7071C66.6062 38.6282 66.2094 38.5871 65.8113 38.5844C65.104 38.5761 64.4013 38.6999 63.7394 38.9494C63.1399 39.1771 62.5926 39.5237 62.1304 39.9682C61.6812 40.4092 61.3275 40.9378 61.0913 41.5214C60.8425 42.1408 60.7175 42.803 60.7233 43.4705C60.7233 44.2626 60.9438 44.9103 61.3771 45.3949C61.8105 45.8795 62.4907 46.1373 63.3776 46.1373C63.68 46.1384 63.9809 46.0949 64.2706 46.0084C64.3638 45.9804 64.4539 45.9509 64.5393 45.9198C64.4367 46.2761 64.2398 46.5981 63.9693 46.8517C63.6587 47.1282 63.1927 47.268 62.5715 47.268C62.2084 47.273 61.8463 47.2286 61.4952 47.1359C61.2087 47.0592 60.9336 46.9454 60.6767 46.7974L60.4499 46.6622L59.6562 48.4716L59.8473 48.5741C60.1933 48.7528 60.5579 48.8929 60.9345 48.9919C61.3911 49.1088 61.861 49.1652 62.3323 49.1597C62.9441 49.1719 63.5544 49.0934 64.1433 48.9267C64.6184 48.7869 65.059 48.5493 65.437 48.2293C65.796 47.9125 66.0848 47.5242 66.285 47.0893C66.5074 46.6062 66.6792 46.1013 66.7976 45.5828L68.3212 39.1979L68.1597 39.1155ZM63.7938 44.3046C63.449 44.3046 63.2176 44.2207 63.0856 44.0468C62.926 43.8031 62.8497 43.5143 62.8681 43.2236C62.8655 42.8579 62.9313 42.4949 63.0623 42.1535C63.1863 41.8319 63.3702 41.5367 63.6043 41.2837C63.8466 41.0235 64.141 40.8171 64.4682 40.6779C64.7954 40.5388 65.1483 40.47 65.5038 40.4761C65.6191 40.4762 65.7343 40.484 65.8486 40.4994L65.0254 43.9163C64.8607 44.0298 64.6808 44.1197 64.4912 44.1834C64.2672 44.2628 64.0314 44.3037 63.7938 44.3046Z" fill="#FFD900"/>
<path id="Vector_14" d="M75.7221 41.1816C75.7186 41.6302 75.6602 42.0767 75.5481 42.5111L74.5821 46.5337H72.4077L73.3566 42.5809C73.4017 42.3728 73.4483 42.1538 73.4949 41.9302C73.5364 41.7393 73.5583 41.5447 73.5601 41.3493C73.5693 41.1217 73.4996 40.8978 73.3629 40.7156C73.2184 40.5293 72.8767 40.4904 72.6158 40.4904C72.4414 40.4908 72.2674 40.5059 72.0955 40.5355C71.9697 40.5588 71.8532 40.5836 71.746 40.6116L70.3482 46.5337H68.1738L70.8142 35.5204L73.074 35.1616L72.2197 38.7338L72.4698 38.6841C72.698 38.6398 72.93 38.6174 73.1625 38.6173C73.5511 38.6088 73.9379 38.6736 74.3025 38.8084C74.6099 38.9255 74.8869 39.1102 75.1132 39.3489C75.3301 39.5865 75.4895 39.8708 75.5792 40.1798C75.6765 40.5047 75.7247 40.8424 75.7221 41.1816Z" fill="#FFD900"/>
<path id="Vector_15" d="M78.6931 44.207L78.6729 44.4571C78.6104 45.2489 78.388 46.0197 78.0191 46.7231C77.6555 47.43 77.2142 48.0942 76.7036 48.7034L76.6026 48.8214L74.9609 48.3073L75.1256 48.0495C75.4838 47.4868 75.7811 46.8875 76.0124 46.2618C76.2376 45.6715 76.3788 45.0525 76.4318 44.4229L76.4488 44.207H78.6931Z" fill="#FFD900"/>
<path id="Vector_16" d="M86.3048 36.373L83.8711 46.5337H81.6299L84.0636 36.373H86.3048Z" fill="#FFD900"/>
<path id="Vector_17" d="M93.1174 41.1534C93.1163 41.3728 93.0992 41.5919 93.0661 41.8088C93.0335 42.0324 92.9931 42.2639 92.945 42.4999L91.9773 46.5381H89.803L90.7348 42.5869C90.7799 42.385 90.8265 42.1753 90.8731 41.9656C90.915 41.776 90.9414 41.5833 90.9523 41.3894C90.9701 41.1548 90.9053 40.9212 90.769 40.7294C90.6541 40.574 90.3869 40.4995 89.9924 40.4995C89.7101 40.4956 89.4282 40.5238 89.1522 40.5834L87.7388 46.5427H85.5645L87.3428 39.1172L87.4717 39.0784C87.8491 38.965 88.2871 38.8578 88.7717 38.7584C89.3051 38.6527 89.8478 38.6006 90.3916 38.6031C91.3126 38.6031 92.0038 38.8376 92.4495 39.3036C92.8953 39.7695 93.1174 40.3861 93.1174 41.1534Z" fill="#FFD900"/>
<path id="Vector_18" d="M100.614 39.0488L99.8233 40.8303L99.6105 40.7355C99.4396 40.662 99.2636 40.6008 99.084 40.5523C98.8568 40.4972 98.6235 40.4717 98.3897 40.4762C98.0507 40.4711 97.7153 40.5467 97.4113 40.6967C97.1233 40.8412 96.8701 41.0462 96.6689 41.2978C96.4551 41.572 96.2935 41.8831 96.192 42.2157C96.0767 42.5873 96.0191 42.9744 96.0212 43.3634C96.019 43.5675 96.0425 43.771 96.0911 43.9692C96.1298 44.1318 96.2017 44.2846 96.3023 44.418C96.4023 44.5458 96.5356 44.6436 96.6875 44.7007C96.9059 44.7797 97.1372 44.8166 97.3693 44.8094C97.6571 44.81 97.9436 44.7702 98.2204 44.6914C98.4387 44.6343 98.6509 44.5563 98.8541 44.4584L99.1647 44.3031L99.3558 46.1948L99.2082 46.2647C98.9207 46.3942 98.6224 46.4981 98.3167 46.5753C97.9037 46.684 97.4779 46.7362 97.0509 46.7306C96.5671 46.7408 96.0859 46.6564 95.6345 46.4821C95.2512 46.33 94.9057 46.0963 94.6218 45.7972C94.3504 45.5033 94.1469 45.1533 94.0254 44.7721C93.898 44.3704 93.8351 43.951 93.839 43.5296C93.8355 42.8871 93.9405 42.2486 94.1497 41.641C94.3486 41.0603 94.6553 40.5223 95.0536 40.0553C95.4532 39.5933 95.9474 39.2226 96.5027 38.9681C97.1134 38.6949 97.7767 38.5592 98.4456 38.5705C98.7964 38.5682 99.1465 38.6004 99.4909 38.6668C99.8041 38.7287 100.109 38.8256 100.401 38.9556L100.614 39.0488Z" fill="#FFD900"/>
<g id="Group 7">
<path id="Vector_19" d="M44.1924 51.7363C44.2452 51.8326 44.3057 51.9507 44.3741 52.0904C44.4424 52.2318 44.5139 52.384 44.5884 52.5486C44.663 52.7133 44.736 52.8794 44.809 53.0518C44.882 53.2242 44.9487 53.3842 45.014 53.5349L45.219 53.0518C45.292 52.8794 45.365 52.7117 45.4395 52.5486C45.5141 52.3855 45.584 52.238 45.6539 52.0904C45.7238 51.9429 45.7812 51.8326 45.834 51.7363H46.4553C46.4848 51.9367 46.5112 52.1603 46.536 52.4088C46.5609 52.6573 46.5826 52.9152 46.6013 53.1854C46.6199 53.4557 46.6386 53.7228 46.6541 53.993C46.6696 54.2633 46.6836 54.5164 46.6945 54.7556H46.0328C46.0251 54.4621 46.0126 54.1421 45.9987 53.7973C45.9847 53.4525 45.9629 53.1031 45.9334 52.7521C45.8806 52.8748 45.8232 53.0083 45.7579 53.1575C45.6927 53.3066 45.6306 53.4525 45.5684 53.6016C45.5063 53.7507 45.4457 53.8905 45.3867 54.0257L45.2314 54.372H44.7562L44.6086 54.0257C44.5496 53.89 44.489 53.7487 44.4269 53.6016C44.3632 53.4463 44.3011 53.305 44.2359 53.1575L44.0619 52.7521C44.0329 53.1031 44.0112 53.4515 43.9967 53.7973C43.9827 54.1421 43.9703 54.4621 43.9625 54.7556H43.2993C43.3117 54.5164 43.3257 54.2633 43.3413 53.993C43.3568 53.7228 43.3754 53.4541 43.3941 53.1854C43.4127 52.9167 43.4344 52.6589 43.4593 52.4088C43.4841 52.1588 43.5105 51.9429 43.5401 51.7363H44.1924Z" fill="#55A301"/>
<path id="Vector_20" d="M47.1434 53.6263C47.1395 53.4439 47.1712 53.2624 47.2366 53.0921C47.2921 52.9497 47.3761 52.8202 47.4835 52.7115C47.5826 52.6108 47.7016 52.532 47.833 52.4801C47.9626 52.4292 48.1006 52.4028 48.2399 52.4025C48.3831 52.3944 48.5263 52.4169 48.6602 52.4683C48.794 52.5197 48.9155 52.5989 49.0165 52.7007C49.2207 52.9456 49.3221 53.2601 49.2991 53.5782C49.2991 53.6155 49.2991 53.6574 49.2991 53.7024C49.2991 53.7475 49.2991 53.7863 49.2898 53.822H47.819C47.8253 53.8843 47.8453 53.9445 47.8775 53.9982C47.9097 54.0519 47.9534 54.0978 48.0054 54.1327C48.1374 54.2176 48.2928 54.2589 48.4496 54.2507C48.5673 54.2508 48.6849 54.2399 48.8006 54.2181C48.897 54.2019 48.9914 54.1748 49.0817 54.1373L49.1687 54.6638C49.124 54.6862 49.0772 54.7039 49.0289 54.7166C48.9651 54.7354 48.9003 54.7504 48.8347 54.7617C48.7592 54.7765 48.683 54.7873 48.6064 54.7943C48.5255 54.8036 48.4441 54.8083 48.3626 54.8083C48.1793 54.8119 47.9969 54.7808 47.8252 54.7166C47.6822 54.6617 47.5529 54.5764 47.4462 54.4666C47.3452 54.3587 47.2694 54.2298 47.2241 54.0892C47.1727 53.9402 47.1454 53.7839 47.1434 53.6263ZM48.667 53.3778C48.6635 53.3252 48.6542 53.2731 48.639 53.2225C48.624 53.1713 48.5986 53.1238 48.5645 53.0827C48.53 53.0411 48.4871 53.0073 48.4387 52.9833C48.3796 52.9554 48.3146 52.9421 48.2492 52.9445C48.1848 52.9433 48.1208 52.9555 48.0613 52.9802C48.0113 53.0039 47.9669 53.0377 47.9308 53.0796C47.8958 53.1213 47.8689 53.1693 47.8516 53.221C47.8327 53.2713 47.8186 53.3233 47.8097 53.3763L48.667 53.3778Z" fill="#55A301"/>
<path id="Vector_21" d="M51.8185 54.6796C51.761 54.6967 51.6943 54.7138 51.6181 54.7293C51.542 54.7448 51.4628 54.7588 51.3805 54.7712C51.2982 54.7836 51.2143 54.7914 51.1289 54.7992C51.0435 54.8069 50.9612 54.81 50.882 54.81C50.7102 54.8126 50.5393 54.7847 50.3772 54.7277C50.2367 54.6766 50.1089 54.5955 50.0029 54.4901C49.8995 54.3833 49.8201 54.2557 49.7699 54.1158C49.7137 53.9573 49.6864 53.79 49.6892 53.6219C49.6869 53.4516 49.7104 53.2819 49.759 53.1187C49.8001 52.9799 49.8682 52.8505 49.9594 52.7382C50.0456 52.6338 50.1552 52.5513 50.2793 52.4974C50.4166 52.4407 50.5641 52.4127 50.7127 52.4151C50.7942 52.4144 50.8755 52.4233 50.955 52.4415C51.0286 52.4596 51.1003 52.4846 51.1693 52.5161V51.4801L51.8185 51.3745V54.6796ZM50.3508 53.5924C50.3423 53.7638 50.3897 53.9333 50.4859 54.0754C50.5326 54.1364 50.5936 54.1848 50.6635 54.2165C50.7334 54.2483 50.81 54.2622 50.8866 54.2571C50.9441 54.2571 50.9985 54.2571 51.0419 54.2571C51.0854 54.2571 51.132 54.2478 51.1631 54.2416V53.0612C51.1147 53.0321 51.0624 53.0101 51.0078 52.996C50.9429 52.9787 50.8761 52.9699 50.809 52.9696C50.5035 52.9654 50.3508 53.1725 50.3508 53.5908V53.5924Z" fill="#55A301"/>
<path id="Vector_22" d="M53.1368 51.8016C53.1397 51.854 53.1308 51.9065 53.111 51.9551C53.0911 52.0037 53.0606 52.0473 53.0218 52.0827C52.9467 52.1488 52.8501 52.1852 52.75 52.1852C52.65 52.1852 52.5534 52.1488 52.4782 52.0827C52.4037 52.0082 52.3618 51.907 52.3618 51.8016C52.3618 51.6962 52.4037 51.595 52.4782 51.5205C52.5534 51.4544 52.65 51.418 52.75 51.418C52.8501 51.418 52.9467 51.4544 53.0218 51.5205C53.0606 51.5559 53.0911 51.5995 53.111 51.6481C53.1308 51.6967 53.1397 51.7491 53.1368 51.8016ZM53.0762 54.7526H52.4239V52.4632H53.0731L53.0762 54.7526Z" fill="#55A301"/>
<path id="Vector_23" d="M53.5791 53.6077C53.5783 53.449 53.6051 53.2913 53.6584 53.1418C53.7085 52.9983 53.7882 52.867 53.8923 52.7562C53.9963 52.6455 54.1225 52.5578 54.2625 52.4988C54.4193 52.433 54.588 52.4008 54.758 52.404C54.8706 52.403 54.9831 52.414 55.0934 52.4366C55.1951 52.4583 55.2944 52.4895 55.3901 52.5298L55.255 53.0486C55.1895 53.024 55.1226 53.0033 55.0546 52.9865C54.9746 52.9689 54.8927 52.9605 54.8108 52.9616C54.7303 52.9554 54.6495 52.9684 54.575 52.9994C54.5005 53.0304 54.4344 53.0787 54.3821 53.1402C54.283 53.2747 54.233 53.4392 54.2408 53.6062C54.23 53.7764 54.2765 53.9453 54.3728 54.0861C54.4321 54.1483 54.5051 54.196 54.5859 54.2254C54.6667 54.2547 54.7533 54.265 54.8387 54.2554C54.923 54.2545 55.0072 54.2473 55.0903 54.2336C55.1758 54.2211 55.2594 54.1976 55.3388 54.1637L55.4305 54.6949C55.3395 54.7324 55.2447 54.7599 55.1478 54.7772C55.0246 54.8017 54.8992 54.8137 54.7735 54.8129C54.589 54.8174 54.4054 54.7858 54.233 54.7198C54.0917 54.663 53.9645 54.5761 53.8603 54.465C53.7621 54.3549 53.6894 54.2244 53.6475 54.083C53.6011 53.9289 53.578 53.7687 53.5791 53.6077Z" fill="#55A301"/>
<path id="Vector_24" d="M56.577 52.4028C56.7394 52.3987 56.9015 52.4208 57.0569 52.4681C57.1743 52.5035 57.281 52.5676 57.3675 52.6544C57.4433 52.7388 57.4967 52.8408 57.5228 52.9511C57.5565 53.0777 57.5727 53.2083 57.571 53.3394V54.689C57.4778 54.7092 57.3489 54.7325 57.1843 54.7605C56.9853 54.7902 56.7843 54.8037 56.5832 54.8009C56.4476 54.8024 56.3122 54.7894 56.1794 54.762C56.0687 54.7397 55.9633 54.6965 55.8688 54.6347C55.783 54.5756 55.714 54.4953 55.6684 54.4017C55.6187 54.2904 55.5948 54.1694 55.5985 54.0476C55.5947 53.9295 55.6226 53.8126 55.6793 53.709C55.7313 53.6179 55.8056 53.5415 55.8952 53.4869C55.9909 53.4292 56.0961 53.3887 56.2058 53.3673C56.3248 53.3422 56.4461 53.3297 56.5677 53.33C56.6424 53.3293 56.717 53.333 56.7913 53.3409C56.8437 53.3467 56.8956 53.356 56.9466 53.3689V53.3083C56.949 53.2596 56.9414 53.2109 56.9243 53.1653C56.9072 53.1196 56.881 53.0779 56.8472 53.0427C56.7482 52.9651 56.6229 52.9289 56.4978 52.9418C56.3886 52.9422 56.2796 52.9505 56.1716 52.9666C56.077 52.9796 55.9838 53.0019 55.8936 53.0334L55.8113 52.5115C55.8577 52.4966 55.9049 52.4842 55.9526 52.4743C56.0085 52.4618 56.0707 52.4494 56.1374 52.4401C56.2042 52.4308 56.2741 52.4199 56.3487 52.4137C56.4245 52.406 56.5007 52.4024 56.577 52.4028ZM56.6298 54.3008C56.6935 54.3008 56.754 54.3008 56.8131 54.3008C56.8593 54.2992 56.9055 54.2951 56.9513 54.2883V53.7913C56.9249 53.7913 56.8861 53.7805 56.8348 53.7742C56.7869 53.7683 56.7387 53.7652 56.6904 53.7649C56.6327 53.7653 56.5752 53.7689 56.518 53.7758C56.4689 53.7822 56.4212 53.7963 56.3766 53.8177C56.3363 53.8364 56.3024 53.8665 56.2792 53.9044C56.256 53.9423 56.2445 53.9861 56.2462 54.0305C56.2416 54.0718 56.2488 54.1135 56.267 54.1509C56.2851 54.1883 56.3134 54.2198 56.3487 54.2417C56.4355 54.2858 56.5325 54.3062 56.6298 54.3008Z" fill="#55A301"/>
<path id="Vector_25" d="M59.076 54.7976C58.9211 54.7996 58.7667 54.7786 58.6178 54.7355C58.5136 54.7068 58.4177 54.6536 58.3383 54.5802C58.2697 54.5118 58.2213 54.4258 58.1985 54.3317C58.173 54.2244 58.161 54.1143 58.1628 54.004V51.4801L58.8104 51.3745V53.8704C58.8099 53.9225 58.8146 53.9745 58.8244 54.0257C58.8307 54.0687 58.8478 54.1093 58.8741 54.1437C58.9024 54.1789 58.9393 54.2062 58.9813 54.223C59.0409 54.2459 59.1038 54.259 59.1677 54.2618L59.076 54.7976Z" fill="#55A301"/>
<path id="Vector_26" d="M62.6546 52.0576C62.6888 52.1772 62.7276 52.3108 62.7696 52.4615C62.8115 52.6121 62.8566 52.7643 62.9047 52.9274C62.9528 53.0905 63.001 53.2474 63.0491 53.4073C63.0973 53.5673 63.147 53.718 63.1936 53.8515C63.2309 53.6962 63.2697 53.5409 63.3085 53.3669C63.3473 53.193 63.3862 53.0128 63.4203 52.828C63.4545 52.6432 63.4902 52.4568 63.5228 52.272C63.5555 52.0872 63.5881 51.9101 63.6176 51.7393H64.3227C64.2192 52.2445 64.1016 52.7566 63.9701 53.2753C63.8387 53.7941 63.6947 54.288 63.5384 54.757H62.9171C62.8146 54.4774 62.7168 54.1854 62.6205 53.8795C62.5242 53.5735 62.431 53.266 62.3378 52.9585C62.2446 53.2691 62.153 53.5797 62.0598 53.8795C61.9666 54.1792 61.8688 54.4774 61.7678 54.757H61.1466C60.9912 54.29 60.8478 53.7961 60.7163 53.2753C60.5848 52.7545 60.4673 52.2425 60.3638 51.7393H61.1C61.1295 51.9101 61.1605 52.0887 61.1963 52.272C61.232 52.4553 61.2677 52.6416 61.305 52.828C61.3422 53.0144 61.3811 53.193 61.4215 53.3669C61.4618 53.5409 61.5007 53.7024 61.541 53.8515C61.5939 53.7086 61.6451 53.558 61.6964 53.398C61.7476 53.238 61.7927 53.0781 61.8392 52.9196C61.8858 52.7612 61.9293 52.609 61.9682 52.4537C62.007 52.2984 62.0427 52.1741 62.0753 52.0576H62.6546Z" fill="#55A301"/>
<path id="Vector_27" d="M64.4578 53.6264C64.454 53.4439 64.4856 53.2625 64.551 53.0921C64.6071 52.9501 64.6911 52.8207 64.798 52.7116C64.8976 52.6108 65.0171 52.532 65.149 52.4802C65.2786 52.429 65.4166 52.4027 65.5559 52.4025C65.6991 52.3944 65.8423 52.4168 65.9762 52.4682C66.1101 52.5196 66.2315 52.5988 66.3325 52.7007C66.5367 52.9456 66.6381 53.2602 66.6151 53.5782C66.6151 53.6155 66.6151 53.6574 66.6151 53.7025C66.6151 53.7475 66.6151 53.7863 66.6074 53.8221H65.135C65.1416 53.8845 65.1618 53.9447 65.1943 53.9983C65.2268 54.052 65.2707 54.0979 65.3229 54.1327C65.4549 54.2178 65.6103 54.2591 65.7671 54.2507C65.8844 54.2508 66.0014 54.2399 66.1166 54.2181C66.213 54.202 66.3074 54.1749 66.3977 54.1374L66.4847 54.6639C66.44 54.6863 66.3932 54.704 66.3449 54.7167C66.2816 54.7354 66.2173 54.7505 66.1523 54.7617C66.0809 54.7752 66.0048 54.786 65.924 54.7943C65.843 54.8036 65.7616 54.8083 65.6801 54.8083C65.4963 54.8121 65.3135 54.781 65.1412 54.7167C64.9983 54.6618 64.8689 54.5765 64.7622 54.4666C64.6612 54.3588 64.5854 54.2299 64.5401 54.0892C64.4889 53.9401 64.4611 53.784 64.4578 53.6264ZM65.9815 53.3779C65.9788 53.3251 65.9694 53.2729 65.9535 53.2226C65.9383 53.1717 65.9136 53.1243 65.8805 53.0828C65.8451 53.0415 65.8018 53.0077 65.7531 52.9834C65.6941 52.9553 65.629 52.9419 65.5637 52.9445C65.4997 52.9432 65.4362 52.9554 65.3773 52.9803C65.3268 53.0031 65.2822 53.0371 65.2468 53.0797C65.2107 53.1209 65.1833 53.169 65.1661 53.221C65.1478 53.2715 65.1338 53.3235 65.1241 53.3763L65.9815 53.3779Z" fill="#55A301"/>
<path id="Vector_28" d="M67.8194 51.8016C67.8223 51.854 67.8135 51.9065 67.7936 51.9551C67.7737 52.0037 67.7433 52.0473 67.7045 52.0827C67.6293 52.1488 67.5327 52.1852 67.4327 52.1852C67.3326 52.1852 67.236 52.1488 67.1609 52.0827C67.0863 52.0082 67.0444 51.907 67.0444 51.8016C67.0444 51.6962 67.0863 51.595 67.1609 51.5205C67.236 51.4544 67.3326 51.418 67.4327 51.418C67.5327 51.418 67.6293 51.4544 67.7045 51.5205C67.7433 51.5559 67.7737 51.5995 67.7936 51.6481C67.8135 51.6967 67.8223 51.7491 67.8194 51.8016ZM67.7588 54.7526H67.1096V52.4632H67.7588V54.7526Z" fill="#55A301"/>
<path id="Vector_29" d="M70.3457 54.4668C70.3457 54.8406 70.251 55.1181 70.0615 55.2993C69.872 55.4805 69.578 55.5716 69.1793 55.5726C69.0392 55.5725 68.8994 55.5601 68.7615 55.5353C68.6298 55.5125 68.5001 55.4798 68.3733 55.4375L68.4866 54.8923C68.5901 54.9342 68.6972 54.9664 68.8066 54.9886C68.9324 55.013 69.0605 55.0244 69.1887 55.0228C69.2589 55.03 69.3299 55.023 69.3974 55.0022C69.4649 54.9814 69.5276 54.9472 69.5816 54.9017C69.6599 54.8176 69.7018 54.7059 69.6981 54.591V54.5087C69.6289 54.5402 69.5565 54.5641 69.4822 54.5802C69.4025 54.5967 69.3213 54.6051 69.2399 54.605C69.1056 54.6134 68.9711 54.5926 68.8457 54.5441C68.7202 54.4956 68.6067 54.4204 68.513 54.3239C68.3337 54.1027 68.2439 53.8222 68.2614 53.538C68.2581 53.3792 68.2844 53.2212 68.3391 53.0721C68.389 52.9386 68.4668 52.8173 68.5674 52.7164C68.673 52.6157 68.7983 52.5379 68.9355 52.4881C69.0936 52.4326 69.2603 52.4053 69.4278 52.4073C69.5055 52.4073 69.5831 52.4073 69.6686 52.4182C69.754 52.4291 69.8348 52.4353 69.9155 52.4477C69.9963 52.4601 70.0708 52.4726 70.1485 52.4881C70.2261 52.5036 70.2883 52.5207 70.3457 52.5393V54.4668ZM68.9231 53.5349C68.9231 53.8973 69.0696 54.0785 69.3626 54.0785C69.4257 54.0795 69.4886 54.0706 69.549 54.0521C69.603 54.0381 69.6551 54.0178 69.7043 53.9915V52.9556C69.6717 52.9556 69.6344 52.9447 69.5909 52.9401C69.5392 52.9373 69.4873 52.9373 69.4356 52.9401C69.3627 52.9345 69.2895 52.9471 69.2226 52.9766C69.1556 53.0061 69.097 53.0517 69.052 53.1093C68.9644 53.2337 68.9192 53.3829 68.9231 53.5349Z" fill="#55A301"/>
<path id="Vector_30" d="M70.9561 54.7541V51.4801L71.6053 51.3745V52.4726C71.7232 52.4342 71.8462 52.4132 71.9703 52.4105C72.129 52.406 72.2871 52.4319 72.4362 52.4866C72.5516 52.5318 72.6533 52.6062 72.7313 52.7024C72.8074 52.7996 72.8605 52.9127 72.8866 53.0333C72.919 53.1733 72.9346 53.3167 72.9332 53.4604V54.7541H72.284V53.5396C72.2959 53.387 72.2681 53.234 72.2032 53.0954C72.1698 53.0488 72.1245 53.012 72.0721 52.9888C72.0197 52.9655 71.962 52.9568 71.905 52.9634C71.8503 52.9636 71.7957 52.9688 71.7419 52.9789L71.6053 53.0115V54.7541H70.9561Z" fill="#55A301"/>
<path id="Vector_31" d="M73.4967 51.8931L74.1459 51.7891V52.4631H74.9224V53.0036H74.1459V53.8081C74.1403 53.9218 74.165 54.0348 74.2173 54.1359C74.2504 54.1798 74.2946 54.2142 74.3454 54.2355C74.3961 54.2568 74.4516 54.2642 74.5062 54.257C74.5786 54.2571 74.6509 54.2503 74.7221 54.2368C74.7915 54.2253 74.8596 54.2071 74.9255 54.1824L75.0156 54.6888C74.9307 54.7224 74.8435 54.7499 74.7547 54.7711C74.6389 54.7963 74.5206 54.8077 74.4021 54.8053C74.2524 54.8101 74.1031 54.7859 73.9626 54.7338C73.8543 54.6918 73.7586 54.6229 73.6846 54.5335C73.6119 54.443 73.5619 54.3365 73.5386 54.2228C73.5095 54.0897 73.4955 53.9537 73.4967 53.8175V51.8931Z" fill="#55A301"/>
<path id="Vector_32" d="M78.5576 54.1701V54.7541H76.5386V51.7363H77.2173V54.1701H78.5576Z" fill="#55A301"/>
<path id="Vector_33" d="M81.0914 53.605C81.0929 53.7728 81.0667 53.9397 81.0138 54.0989C80.9653 54.2405 80.8881 54.3706 80.787 54.481C80.6874 54.5877 80.5661 54.6719 80.4314 54.7279C80.1348 54.8438 79.8054 54.8438 79.5088 54.7279C79.3743 54.6722 79.2534 54.588 79.1547 54.481C79.0522 54.3708 78.9735 54.2408 78.9233 54.0989C78.8666 53.9405 78.8387 53.7732 78.8409 53.605C78.8388 53.4372 78.8672 53.2703 78.9248 53.1127C78.9769 52.9716 79.0572 52.8426 79.1609 52.7337C79.2616 52.6284 79.3833 52.5453 79.5181 52.4899C79.6609 52.431 79.8141 52.4014 79.9685 52.4029C80.1245 52.4014 80.2792 52.431 80.4236 52.4899C80.5577 52.545 80.6784 52.6281 80.7777 52.7337C80.8799 52.8429 80.9587 52.9719 81.0091 53.1127C81.0655 53.2706 81.0933 53.4373 81.0914 53.605ZM80.4298 53.605C80.4387 53.4387 80.397 53.2735 80.3102 53.1313C80.2724 53.0762 80.2212 53.0316 80.1614 53.0018C80.1017 52.9719 80.0353 52.9577 79.9685 52.9605C79.9013 52.9577 79.8345 52.9719 79.7743 53.0018C79.714 53.0316 79.6623 53.0762 79.6237 53.1313C79.5357 53.2731 79.4935 53.4384 79.5026 53.605C79.4939 53.7725 79.5361 53.9388 79.6237 54.0818C79.6615 54.138 79.713 54.1836 79.7733 54.2143C79.8337 54.2451 79.9009 54.2599 79.9685 54.2573C80.0358 54.2599 80.1025 54.2451 80.1624 54.2144C80.2222 54.1836 80.2732 54.138 80.3102 54.0818C80.3965 53.9383 80.4382 53.7723 80.4298 53.605Z" fill="#55A301"/>
<path id="Vector_34" d="M82.2447 54.288C82.3302 54.2932 82.4157 54.281 82.4963 54.2523C82.5211 54.2401 82.5415 54.2206 82.5548 54.1965C82.5681 54.1723 82.5737 54.1446 82.5709 54.1172C82.5684 54.0879 82.5581 54.0599 82.5412 54.0359C82.5243 54.0119 82.5013 53.9928 82.4746 53.9805C82.3821 53.9277 82.2848 53.8835 82.1842 53.8485C82.0817 53.8097 81.99 53.7708 81.9077 53.7305C81.8299 53.6936 81.7585 53.6443 81.6965 53.5845C81.6373 53.5278 81.5912 53.4589 81.5614 53.3826C81.527 53.2919 81.5106 53.1953 81.5132 53.0983C81.5102 53.0006 81.5302 52.9035 81.5718 52.815C81.6134 52.7265 81.6752 52.649 81.7524 52.5889C81.9443 52.455 82.1757 52.3894 82.4094 52.4025C82.5438 52.402 82.678 52.4145 82.8101 52.4398C82.9156 52.4579 83.0195 52.4843 83.1207 52.519L83.0089 53.0253C82.9279 52.9976 82.8455 52.9742 82.7619 52.9555C82.664 52.934 82.564 52.9236 82.4637 52.9244C82.2603 52.9244 82.1531 52.9819 82.1531 53.0952C82.153 53.1186 82.1572 53.1417 82.1655 53.1636C82.1772 53.1878 82.1955 53.2083 82.2183 53.2226C82.2523 53.2462 82.2881 53.267 82.3255 53.2847C82.3705 53.3065 82.428 53.3298 82.4963 53.3562C82.6176 53.3989 82.7355 53.4509 82.8489 53.5115C82.9308 53.5541 83.0053 53.6097 83.0695 53.6761C83.1217 53.733 83.1605 53.8009 83.1828 53.8749C83.206 53.9567 83.217 54.0415 83.2154 54.1265C83.2207 54.2267 83.2 54.3264 83.1554 54.4162C83.1108 54.506 83.0437 54.5828 82.9607 54.6391C82.7433 54.7677 82.4923 54.8283 82.2401 54.813C82.0692 54.8168 81.8986 54.7991 81.7322 54.7602C81.6369 54.7385 81.5434 54.7094 81.4526 54.6732L81.5614 54.1467C81.6712 54.19 81.7845 54.2243 81.8999 54.2492C82.0132 54.2742 82.1288 54.2873 82.2447 54.288Z" fill="#55A301"/>
<path id="Vector_35" d="M84.36 54.2882C84.4459 54.2932 84.532 54.2811 84.6131 54.2524C84.6379 54.2402 84.6583 54.2207 84.6716 54.1966C84.6849 54.1724 84.6905 54.1448 84.6877 54.1173C84.6851 54.0881 84.6749 54.06 84.658 54.036C84.6411 54.012 84.6181 53.9929 84.5914 53.9806C84.4983 53.9279 84.4005 53.8837 84.2994 53.8486C84.1984 53.8098 84.1053 53.771 84.0229 53.7306C83.9455 53.6929 83.8743 53.6437 83.8117 53.5846C83.7535 53.5271 83.7076 53.4584 83.6766 53.3827C83.6429 53.2918 83.6266 53.1954 83.6284 53.0985C83.6256 53.0006 83.6459 52.9034 83.6877 52.8149C83.7296 52.7263 83.7917 52.649 83.8692 52.589C84.0609 52.4547 84.2924 52.389 84.5262 52.4027C84.6606 52.4022 84.7948 52.4146 84.9269 52.4399C85.0323 52.4582 85.1362 52.4847 85.2375 52.5191L85.1241 53.0255C85.0437 52.9975 84.9618 52.9741 84.8787 52.9556C84.7808 52.9341 84.6808 52.9237 84.5805 52.9245C84.3771 52.9245 84.2699 52.982 84.2699 53.0953C84.2688 53.1188 84.2731 53.1421 84.2823 53.1637C84.294 53.1879 84.3123 53.2084 84.3351 53.2227C84.3683 53.2467 84.4037 53.2675 84.4407 53.2848C84.4858 53.3066 84.5432 53.3299 84.6131 53.3563C84.7343 53.3993 84.8521 53.4513 84.9657 53.5116C85.0476 53.5543 85.1221 53.6098 85.1862 53.6762C85.2374 53.7339 85.2761 53.8016 85.2996 53.875C85.3228 53.9568 85.3337 54.0416 85.3322 54.1266C85.3375 54.2268 85.3168 54.3266 85.2722 54.4163C85.2276 54.5061 85.1605 54.5829 85.0775 54.6392C84.86 54.7677 84.6091 54.8283 84.3569 54.8131C84.186 54.817 84.0154 54.7992 83.849 54.7603C83.7533 54.7383 83.6593 54.7092 83.5679 54.6733L83.6766 54.1468C83.7869 54.1903 83.9007 54.2246 84.0167 54.2493C84.1295 54.2744 84.2445 54.2874 84.36 54.2882Z" fill="#55A301"/>
<path id="Vector_36" d="M88.2787 54.8147C87.7895 54.8147 87.4152 54.6781 87.1589 54.4047C86.9026 54.1313 86.7722 53.7446 86.7722 53.243C86.7688 53.0149 86.8088 52.7882 86.8902 52.5751C86.9633 52.3904 87.0738 52.2227 87.2148 52.0828C87.3527 51.9448 87.5192 51.8387 87.7025 51.7721C87.8991 51.7011 88.1069 51.6658 88.316 51.6681C88.4326 51.6672 88.549 51.6765 88.6639 51.696C88.7568 51.712 88.8486 51.7338 88.9388 51.7613C89.0056 51.7824 89.071 51.8078 89.1345 51.8374C89.1857 51.8638 89.2246 51.884 89.2479 51.8995L89.0522 52.4477C88.9488 52.3942 88.84 52.352 88.7276 52.3219C88.5904 52.2848 88.4487 52.267 88.3067 52.2691C88.2008 52.2683 88.0957 52.2862 87.996 52.3219C87.8958 52.3559 87.8049 52.4128 87.7305 52.4881C87.6477 52.5736 87.5842 52.6758 87.5441 52.7879C87.4954 52.9302 87.4722 53.0801 87.4757 53.2305C87.4742 53.3619 87.4893 53.4928 87.5208 53.6204C87.5478 53.7331 87.598 53.8389 87.6683 53.931C87.7402 54.0202 87.8323 54.091 87.937 54.1376C88.0635 54.1918 88.2002 54.2177 88.3377 54.2137C88.4265 54.214 88.5153 54.2083 88.6033 54.1966C88.681 54.1842 88.7586 54.1702 88.8114 54.1546C88.8645 54.1405 88.9164 54.1223 88.9668 54.1003L89.0926 54.0444L89.2805 54.588C89.1532 54.6582 89.0168 54.7105 88.8751 54.7433C88.6802 54.7925 88.4798 54.8165 88.2787 54.8147Z" fill="#55A301"/>
<path id="Vector_37" d="M89.5194 53.6264C89.5153 53.4438 89.5475 53.2622 89.6141 53.0921C89.6697 52.9501 89.7531 52.8208 89.8595 52.7116C89.9591 52.6108 90.0787 52.532 90.2105 52.4802C90.3401 52.429 90.4782 52.4027 90.6175 52.4025C90.7606 52.3944 90.9039 52.4168 91.0378 52.4682C91.1717 52.5196 91.2931 52.5988 91.394 52.7007C91.5983 52.9456 91.6996 53.2602 91.6767 53.5782C91.6767 53.6155 91.6767 53.6574 91.6767 53.7025C91.6767 53.7475 91.6767 53.7863 91.6689 53.8221H90.1966C90.2035 53.8844 90.2238 53.9444 90.2563 53.9981C90.2887 54.0517 90.3325 54.0977 90.3845 54.1327C90.5164 54.2178 90.6719 54.2591 90.8287 54.2507C90.9459 54.2509 91.0629 54.24 91.1781 54.2181C91.2747 54.2022 91.369 54.1751 91.4593 54.1374L91.5462 54.6639C91.502 54.686 91.4557 54.7037 91.408 54.7167C91.3442 54.7353 91.2794 54.7503 91.2139 54.7617C91.1424 54.7752 91.0663 54.786 90.9856 54.7943C90.9046 54.8036 90.8232 54.8083 90.7417 54.8083C90.5579 54.8119 90.3751 54.7808 90.2028 54.7167C90.0601 54.6622 89.9312 54.5768 89.8254 54.4666C89.7233 54.3596 89.6473 54.2304 89.6033 54.0892C89.5508 53.9404 89.5224 53.7841 89.5194 53.6264ZM91.0446 53.3779C91.0413 53.3251 91.0314 53.2729 91.0151 53.2226C90.9999 53.1717 90.9751 53.1243 90.9421 53.0828C90.9067 53.0415 90.8634 53.0077 90.8147 52.9834C90.7556 52.9553 90.6906 52.9419 90.6252 52.9445C90.5613 52.9435 90.4979 52.9557 90.4389 52.9803C90.3884 53.0031 90.3438 53.0371 90.3084 53.0797C90.2723 53.1209 90.2448 53.169 90.2276 53.221C90.2093 53.2715 90.1953 53.3235 90.1857 53.3763L91.0446 53.3779Z" fill="#55A301"/>
<path id="Vector_38" d="M92.1721 52.5485C92.312 52.5097 92.4541 52.4796 92.5977 52.4584C92.7796 52.4298 92.9634 52.4158 93.1475 52.4165C93.3123 52.4122 93.4765 52.438 93.6321 52.4926C93.7526 52.5364 93.8596 52.6108 93.9427 52.7085C94.0174 52.8064 94.0704 52.9192 94.098 53.0393C94.1304 53.1793 94.146 53.3227 94.1446 53.4664V54.7602H93.497V53.5456C93.5089 53.3927 93.48 53.2394 93.4131 53.1014C93.3777 53.0538 93.3303 53.0165 93.2757 52.9933C93.2211 52.9701 93.1613 52.9618 93.1025 52.9694C93.0559 52.9694 93.0077 52.9694 92.9549 52.9772C92.9021 52.9849 92.8555 52.9865 92.8151 52.9911V54.7539H92.1675L92.1721 52.5485Z" fill="#55A301"/>
<path id="Vector_39" d="M94.7144 51.8931L95.3621 51.7891V52.4631H96.1386V53.0036H95.3621V53.8081C95.357 53.9219 95.3822 54.035 95.435 54.1359C95.4682 54.1798 95.5123 54.2142 95.5631 54.2355C95.6139 54.2568 95.6694 54.2642 95.7239 54.257C95.7964 54.257 95.8686 54.2502 95.9398 54.2368C96.0088 54.2256 96.0764 54.2073 96.1417 54.1824L96.2334 54.6888C96.1485 54.7224 96.0613 54.7499 95.9724 54.7711C95.8566 54.7962 95.7383 54.8076 95.6199 54.8053C95.4701 54.8103 95.3208 54.786 95.1803 54.7338C95.0719 54.6915 94.9757 54.6226 94.9008 54.5335C94.8287 54.4426 94.7787 54.3363 94.7548 54.2228C94.727 54.0895 94.7135 53.9536 94.7144 53.8175V51.8931Z" fill="#55A301"/>
<path id="Vector_40" d="M96.4725 53.6264C96.4684 53.4438 96.5006 53.2622 96.5673 53.0921C96.6228 52.9502 96.7063 52.8208 96.8127 52.7116C96.9123 52.6109 97.0318 52.5321 97.1637 52.4802C97.2933 52.4291 97.4313 52.4027 97.5706 52.4025C97.7138 52.3943 97.8571 52.4167 97.991 52.4681C98.1248 52.5195 98.2463 52.5988 98.3472 52.7007C98.5514 52.9456 98.6528 53.2602 98.6298 53.5783C98.6298 53.6155 98.6298 53.6575 98.6298 53.7025C98.6298 53.7476 98.6298 53.7864 98.6221 53.8221H97.1388C97.1457 53.8844 97.1661 53.9445 97.1985 53.9981C97.231 54.0518 97.2747 54.0977 97.3267 54.1327C97.4593 54.221 97.6166 54.2646 97.7756 54.257C97.8929 54.2571 98.0099 54.2462 98.1251 54.2244C98.2216 54.2084 98.3159 54.1813 98.4062 54.1436L98.4931 54.6701C98.4489 54.6923 98.4026 54.71 98.3549 54.7229C98.2911 54.7415 98.2263 54.7565 98.1608 54.768C98.0893 54.7814 98.0132 54.7923 97.9325 54.8006C97.8515 54.8098 97.7701 54.8145 97.6886 54.8146C97.5048 54.8182 97.322 54.7871 97.1497 54.7229C97.007 54.6684 96.8781 54.583 96.7723 54.4729C96.6702 54.3658 96.5942 54.2367 96.5502 54.0955C96.4991 53.9443 96.4729 53.7859 96.4725 53.6264ZM97.9977 53.3779C97.9944 53.3251 97.9845 53.2729 97.9682 53.2226C97.953 53.1718 97.9282 53.1243 97.8952 53.0828C97.8598 53.0415 97.8165 53.0077 97.7678 52.9834C97.7088 52.9553 97.6437 52.942 97.5784 52.9446C97.5144 52.9436 97.451 52.9557 97.392 52.9803C97.3415 53.0031 97.2969 53.0371 97.2615 53.0797C97.2254 53.1209 97.198 53.169 97.1808 53.221C97.1625 53.2716 97.1484 53.3235 97.1388 53.3764L97.9977 53.3779Z" fill="#55A301"/>
<path id="Vector_41" d="M100.505 53.0378C100.447 53.0238 100.379 53.0083 100.301 52.9928C100.218 52.9755 100.133 52.9672 100.048 52.9679C99.9992 52.969 99.9505 52.9726 99.9021 52.9788C99.8585 52.9838 99.8154 52.9921 99.7731 53.0036V54.754H99.1255V52.5796C99.2603 52.533 99.3978 52.4941 99.5371 52.4631C99.7105 52.4255 99.8876 52.4072 100.065 52.4088C100.101 52.4088 100.143 52.4088 100.191 52.4088C100.239 52.4088 100.29 52.4197 100.346 52.4274C100.402 52.4352 100.444 52.443 100.502 52.4523C100.544 52.4611 100.587 52.4736 100.627 52.4895L100.505 53.0378Z" fill="#55A301"/>
</g>
<path id="Vector_42" d="M85.5796 5.64404C85.5796 5.64404 81.5958 10.0565 80.8721 14.2903C80.1483 18.5242 83.312 23.5098 88.6005 26.1734C88.6005 26.1734 93.2505 21.3587 91.817 16.2457C90.3835 11.1328 85.3327 11.5832 85.5796 5.64404Z" fill="#55A301"/>
<path id="Vector_43" d="M88.7682 24.9633C88.8494 24.0167 88.8531 23.0651 88.7791 22.118C88.7119 21.1851 88.5785 20.2581 88.3799 19.3441C88.3364 19.1158 88.2681 18.8906 88.2153 18.6638L88.133 18.3237L88.032 17.9882C87.9652 17.763 87.8969 17.5393 87.8332 17.3126C87.7695 17.0858 87.6779 16.8715 87.5987 16.6478L87.4853 16.3123C87.4465 16.2005 87.3968 16.0949 87.3549 15.9831C87.2663 15.7641 87.1809 15.5435 87.0955 15.3199C87.0101 15.0962 86.9045 14.8835 86.8144 14.6598C86.7243 14.4362 86.628 14.2172 86.541 13.9873C86.6963 14.1706 86.8516 14.3601 87.007 14.5511C87.0831 14.6458 87.1545 14.7452 87.2291 14.8415C87.304 14.9378 87.374 15.0379 87.4387 15.1413C87.5676 15.3463 87.6965 15.5544 87.8208 15.7625C87.8845 15.8666 87.9497 15.9707 88.0056 16.0732L88.1609 16.4024C88.2681 16.6214 88.3722 16.8435 88.4716 17.0656C88.571 17.2877 88.644 17.5316 88.7294 17.7552C88.7729 17.8701 88.8133 17.9866 88.8521 18.1031L88.953 18.4572C89.0136 18.6949 89.0866 18.9232 89.1347 19.1717C89.3476 20.1348 89.4333 21.1217 89.3895 22.1071C89.3606 23.0894 89.15 24.0578 88.7682 24.9633Z" fill="white"/>
<path id="Vector_44" d="M114.159 22.3914C114.159 22.3914 111.738 29.6911 107.434 33.2074C103.13 36.7237 95.5028 36.3432 89.1318 32.0938C89.1318 32.0938 91.5765 23.7908 98.2487 22.1383C104.921 20.4857 107.633 26.456 114.159 22.3914Z" fill="#55A301"/>
<path id="Vector_45" d="M90.2822 31.1157C91.0588 30.1294 92.0699 29.3389 93.1415 28.6788L93.5469 28.4303C93.682 28.348 93.8249 28.275 93.9647 28.2066C94.2443 28.0622 94.5223 27.91 94.8158 27.7904C95.1094 27.6708 95.3951 27.5357 95.6918 27.4239L96.5895 27.1132C96.7371 27.0589 96.8924 27.0263 97.0446 26.9843L97.5105 26.8647L97.9765 26.7482C98.1318 26.7172 98.2871 26.6908 98.4424 26.6628C98.753 26.61 99.0637 26.5557 99.3743 26.5075C99.6849 26.4594 99.9955 26.4516 100.317 26.4283L100.783 26.3926C100.938 26.3926 101.094 26.3926 101.249 26.3926L102.19 26.4066C102.268 26.4066 102.345 26.4066 102.425 26.4159L102.659 26.4407C102.814 26.4578 102.97 26.4718 103.125 26.492C103.436 26.5293 103.746 26.5681 104.057 26.6162C103.746 26.6551 103.436 26.6815 103.125 26.7079C102.97 26.7218 102.814 26.7296 102.659 26.7405L102.429 26.7576C102.352 26.7576 102.274 26.7778 102.199 26.7871L101.283 26.9005C101.128 26.9222 100.972 26.93 100.826 26.9548L100.374 27.034C100.073 27.0879 99.7719 27.1396 99.4706 27.1893L98.5791 27.3912L98.1333 27.4875L97.6953 27.6133C97.4034 27.6972 97.1067 27.7687 96.8178 27.8618C95.6567 28.2241 94.5253 28.6754 93.4335 29.2115C92.3267 29.7479 91.2718 30.3853 90.2822 31.1157Z" fill="white"/>
</g>
</g>
</svg>
