<svg width="25" height="18" viewBox="0 0 25 18" fill="none" xmlns="http://www.w3.org/2000/svg">
<g id="menu">
<path id="Vector" d="M24.0234 7.8125H0.976562C0.437207 7.8125 0 8.24971 0 8.78906C0 9.32842 0.437207 9.76562 0.976562 9.76562H24.0234C24.5628 9.76562 25 9.32842 25 8.78906C25 8.24971 24.5628 7.8125 24.0234 7.8125Z" fill="#DD71C6"/>
<path id="Vector_2" d="M24.0234 0H0.976562C0.437207 0 0 0.437207 0 0.976562C0 1.51592 0.437207 1.95312 0.976562 1.95312H24.0234C24.5628 1.95312 25 1.51592 25 0.976562C25 0.437207 24.5628 0 24.0234 0Z" fill="#DD71C6"/>
<path id="Vector_3" d="M24.0234 15.625H0.976562C0.437207 15.625 0 16.0622 0 16.6016C0 17.1409 0.437207 17.5781 0.976562 17.5781H24.0234C24.5628 17.5781 25 17.1409 25 16.6016C25 16.0622 24.5628 15.625 24.0234 15.625Z" fill="#DD71C6"/>
</g>
</svg>
